# xmcd CD database file
# Copyright (C) 1993-1998 Ti Kan
# 
# Track frame offsets:
#     183
#     15298
#     30900
#     45530
#     67558
#     85303
#     108003
#     126795
#     143780
#     160088
#     171688
#     188910
#     203233
# 
# Disc length: 2922 seconds
# 
# Revision: 1
# Processed by: cddbd v1.4b41PL1 Copyright (c) Steve Scherf et al.
# Submitted via: DiscPlay 4.0.4
# 
DISCID=9c0b680d
DTITLE=Crudup, Arthur "Big Boy" - Roebuck Man - The 1970 London Sessions
DYEAR=1900
DGENRE=
TTITLE0=I Don't Worry
TTITLE1=Needle Time
TTITLE2=Room And Board
TTITLE3=Blind Man Sees
TTITLE4=Long Curly Mane
TTITLE5=Roebuck Man
TTITLE6=Old And Grey
TTITLE7=Before You Go
TTITLE8=Corrina Corrina
TTITLE9=Boogie In The Morning
TTITLE10=Get You In My Arms
TTITLE11=What Are You Trying To Do?
TTITLE12=Burying Ground
EXTD=
EXTT0=
EXTT1=
EXTT2=
EXTT3=
EXTT4=
EXTT5=
EXTT6=
EXTT7=
EXTT8=
EXTT9=
EXTT10=
EXTT11=
EXTT12=
PLAYORDER=
